<svg width="27" height="27" viewBox="0 0 27 27" fill="none" xmlns="http://www.w3.org/2000/svg">
<path d="M16.5567 13.5648L26.0757 4.06797C26.4926 3.65111 26.7267 3.08574 26.7267 2.49622C26.7267 1.9067 26.4926 1.34133 26.0757 0.924476C25.6588 0.507623 25.0935 0.273437 24.504 0.273438C23.9144 0.273438 23.3491 0.507623 22.9322 0.924476L13.4353 10.4435L3.93844 0.924476C3.52159 0.507623 2.95622 0.273437 2.3667 0.273438C1.77718 0.273438 1.21181 0.507623 0.794953 0.924476C0.3781 1.34133 0.143915 1.9067 0.143915 2.49622C0.143915 3.08574 0.3781 3.65111 0.794953 4.06797L10.314 13.5648L0.794953 23.0617C0.587464 23.2675 0.422776 23.5124 0.310388 23.7821C0.198 24.0519 0.140137 24.3412 0.140137 24.6335C0.140137 24.9257 0.198 25.2151 0.310388 25.4848C0.422776 25.7546 0.587464 25.9994 0.794953 26.2052C1.00075 26.4127 1.24559 26.5774 1.51535 26.6898C1.78511 26.8022 2.07446 26.86 2.3667 26.86C2.65894 26.86 2.94828 26.8022 3.21805 26.6898C3.48781 26.5774 3.73265 26.4127 3.93844 26.2052L13.4353 16.6862L22.9322 26.2052C23.138 26.4127 23.3828 26.5774 23.6526 26.6898C23.9224 26.8022 24.2117 26.86 24.504 26.86C24.7962 26.86 25.0855 26.8022 25.3553 26.6898C25.6251 26.5774 25.8699 26.4127 26.0757 26.2052C26.2832 25.9994 26.4479 25.7546 26.5603 25.4848C26.6727 25.2151 26.7305 24.9257 26.7305 24.6335C26.7305 24.3412 26.6727 24.0519 26.5603 23.7821C26.4479 23.5124 26.2832 23.2675 26.0757 23.0617L16.5567 13.5648Z" fill="white"/>
</svg>
