<svg width="20" height="21" viewBox="0 0 20 21" fill="none" xmlns="http://www.w3.org/2000/svg">
<path d="M7.55004 0.929729C5.97504 0.919729 4.44171 2.73973 5.14171 4.99973H2.50004C2.05801 4.99973 1.63409 5.21044 1.32153 5.58552C1.00897 5.96059 0.833374 6.4693 0.833374 6.99973V8.99973C0.833374 9.26495 0.921171 9.5193 1.07745 9.70683C1.23373 9.89437 1.44569 9.99973 1.66671 9.99973H9.16671V6.99973H10.8334V9.99973H18.3334C18.5544 9.99973 18.7664 9.89437 18.9226 9.70683C19.0789 9.5193 19.1667 9.26495 19.1667 8.99973V6.99973C19.1667 6.4693 18.9911 5.96059 18.6786 5.58552C18.366 5.21044 17.9421 4.99973 17.5 4.99973H14.8584C15.8334 1.72973 12.1667 -0.580271 10.475 2.23973L10 2.99973L9.52504 2.21973C9.00004 1.32973 8.27504 0.939729 7.55004 0.929729ZM7.50004 2.99973C8.24171 2.99973 8.61671 4.07973 8.09171 4.70973C7.56671 5.33973 6.66671 4.88973 6.66671 3.99973C6.66671 3.73451 6.75451 3.48016 6.91079 3.29262C7.06707 3.10509 7.27903 2.99973 7.50004 2.99973ZM12.5 2.99973C13.2417 2.99973 13.6167 4.07973 13.0917 4.70973C12.5667 5.33973 11.6667 4.88973 11.6667 3.99973C11.6667 3.73451 11.7545 3.48016 11.9108 3.29262C12.0671 3.10509 12.279 2.99973 12.5 2.99973ZM1.66671 10.9997V18.9997C1.66671 19.5302 1.8423 20.0389 2.15486 20.4139C2.46742 20.789 2.89135 20.9997 3.33337 20.9997H16.6667C17.1087 20.9997 17.5327 20.789 17.8452 20.4139C18.1578 20.0389 18.3334 19.5302 18.3334 18.9997V10.9997H10.8334V18.9997H9.16671V10.9997H1.66671Z" fill="white"/>
</svg>
