<svg width="82" height="87" viewBox="0 0 82 87" fill="none" xmlns="http://www.w3.org/2000/svg">
<path d="M30.2198 0.281426C23.2898 0.238509 16.5432 8.04934 19.6232 17.7485H7.99984C6.05492 17.7485 4.18965 18.6528 2.81439 20.2625C1.43912 21.8722 0.666504 24.0554 0.666504 26.3318V34.9152C0.666504 36.0534 1.05281 37.145 1.74045 37.9498C2.42808 38.7547 3.36071 39.2068 4.33317 39.2068H37.3332V26.3318H44.6665V39.2068H77.6665C78.639 39.2068 79.5716 38.7547 80.2592 37.9498C80.9469 37.145 81.3332 36.0534 81.3332 34.9152V26.3318C81.3332 24.0554 80.5605 21.8722 79.1853 20.2625C77.81 18.6528 75.9448 17.7485 73.9998 17.7485H62.3765C66.6665 3.71476 50.5332 -6.19899 43.0898 5.90351L40.9998 9.16518L38.9098 5.81768C36.5998 1.99809 33.4098 0.324343 30.2198 0.281426ZM29.9998 9.16518C33.2632 9.16518 34.9132 13.8002 32.6032 16.5039C30.2932 19.2077 26.3332 17.2764 26.3332 13.4568C26.3332 12.3186 26.7195 11.227 27.4071 10.4222C28.0947 9.61733 29.0274 9.16518 29.9998 9.16518ZM51.9998 9.16518C55.2632 9.16518 56.9132 13.8002 54.6032 16.5039C52.2932 19.2077 48.3332 17.2764 48.3332 13.4568C48.3332 12.3186 48.7195 11.227 49.4071 10.4222C50.0947 9.61733 51.0274 9.16518 51.9998 9.16518ZM4.33317 43.4985V77.8319C4.33317 80.1083 5.10579 82.2915 6.48105 83.9012C7.85632 85.5109 9.72158 86.4152 11.6665 86.4152H70.3332C72.2781 86.4152 74.1433 85.5109 75.5186 83.9012C76.8939 82.2915 77.6665 80.1083 77.6665 77.8319V43.4985H44.6665V77.8319H37.3332V43.4985H4.33317Z" fill="#FF2423"/>
</svg>
