<svg width="43" height="43" viewBox="0 0 43 43" fill="none" xmlns="http://www.w3.org/2000/svg">
<path d="M16.4106 31.1151L31.2506 21.5751L16.4106 12.0352V31.1151ZM21.7106 42.775C18.778 42.775 16.022 42.2181 13.4427 41.1044C10.8633 39.9922 8.61969 38.482 6.71171 36.574C4.80372 34.666 3.29358 32.4224 2.18129 29.8431C1.06759 27.2637 0.510742 24.5078 0.510742 21.5751C0.510742 18.6425 1.06759 15.8865 2.18129 13.3072C3.29358 10.7278 4.80372 8.4842 6.71171 6.57621C8.61969 4.66822 10.8633 3.15737 13.4427 2.04367C16.022 0.931387 18.778 0.375244 21.7106 0.375244C24.6433 0.375244 27.3992 0.931387 29.9786 2.04367C32.5579 3.15737 34.8015 4.66822 36.7095 6.57621C38.6175 8.4842 40.1277 10.7278 41.2399 13.3072C42.3536 15.8865 42.9105 18.6425 42.9105 21.5751C42.9105 24.5078 42.3536 27.2637 41.2399 29.8431C40.1277 32.4224 38.6175 34.666 36.7095 36.574C34.8015 38.482 32.5579 39.9922 29.9786 41.1044C27.3992 42.2181 24.6433 42.775 21.7106 42.775ZM21.7106 38.535C26.4453 38.535 30.4556 36.892 33.7415 33.606C37.0275 30.3201 38.6705 26.3098 38.6705 21.5751C38.6705 16.8405 37.0275 12.8302 33.7415 9.54419C30.4556 6.25821 26.4453 4.61522 21.7106 4.61522C16.976 4.61522 12.9657 6.25821 9.67969 9.54419C6.39371 12.8302 4.75072 16.8405 4.75072 21.5751C4.75072 26.3098 6.39371 30.3201 9.67969 33.606C12.9657 36.892 16.976 38.535 21.7106 38.535Z" fill="white" fill-opacity="0.6"/>
</svg>
