<svg width="87" height="87" viewBox="0 0 87 87" fill="none" xmlns="http://www.w3.org/2000/svg">
<path d="M43.5 79.75C38.7396 79.75 34.0258 78.8124 29.6277 76.9906C25.2297 75.1689 21.2335 72.4987 17.8674 69.1326C11.0692 62.3344 7.25 53.1141 7.25 43.5C7.25 33.8859 11.0692 24.6656 17.8674 17.8674C24.6656 11.0692 33.8859 7.25 43.5 7.25C48.2604 7.25 52.9742 8.18763 57.3723 10.0094C61.7703 11.8311 65.7665 14.5013 69.1326 17.8674C72.4987 21.2335 75.1689 25.2297 76.9906 29.6277C78.8124 34.0258 79.75 38.7396 79.75 43.5C79.75 53.1141 75.9308 62.3344 69.1326 69.1326C62.3344 75.9308 53.1141 79.75 43.5 79.75ZM61.625 50.75L43.5 32.625L25.375 50.75H61.625Z" fill="#FF2423"/>
</svg>
